<?xml version="1.0" encoding="UTF-8"?>
<svg version="1.1" xmlns="http://www.w3.org/2000/svg" width="503" height="306">
<path d="M0 0 C165.99 0 331.98 0 503 0 C503 100.98 503 201.96 503 306 C337.01 306 171.02 306 0 306 C0 205.02 0 104.04 0 0 Z " fill="#000E17" transform="translate(0,0)"/>
<path d="M0 0 C0.67074558 -0.00085442 1.34149117 -0.00170885 2.03256238 -0.00258917 C4.26653778 -0.00422836 6.50043709 0.00125169 8.73440552 0.00672913 C10.34118142 0.00701136 11.94795745 0.00685255 13.55473328 0.00628662 C17.90755628 0.00600006 22.26035165 0.01187394 26.61316824 0.01886058 C31.1655523 0.02511766 35.71793701 0.02569978 40.27032471 0.02688599 C48.88683583 0.02999236 57.50333425 0.0381964 66.11983979 0.04823548 C75.9311569 0.05941816 85.74247463 0.0649125 95.55379653 0.06993091 C115.73265896 0.08037958 135.91150995 0.09796559 156.09036255 0.12025452 C154.85133926 3.55139594 153.72708283 6.54995916 151.09036255 9.12025452 C148.32122231 9.61409664 148.32122231 9.61409664 144.89471436 9.60559082 C143.59676941 9.61227783 142.29882446 9.61896484 140.96154785 9.62585449 C139.51961988 9.61316612 138.07769487 9.60013892 136.63577271 9.58680725 C135.11949497 9.5873559 133.60321696 9.58973006 132.08694458 9.59379578 C128.81782457 9.59897923 125.54903937 9.59187892 122.27995682 9.57554436 C117.10088527 9.55043636 111.92214467 9.55670913 106.74304199 9.56802368 C93.86992805 9.59123748 80.99690795 9.57289701 68.12380981 9.54652405 C58.13599921 9.52652833 48.1484542 9.5181066 38.16064298 9.54346043 C33.02330924 9.55521608 27.88673294 9.54375662 22.74947858 9.51420772 C19.53438992 9.50084498 16.31958702 9.50844313 13.10450745 9.52148819 C11.62639759 9.52332738 10.14824656 9.51678426 8.67022324 9.50068474 C-4.40477428 9.36618427 -15.62944013 12.0718114 -25.69088745 20.84291077 C-37.77391159 33.24502885 -39.52808508 49.0342766 -39.39547729 65.55140686 C-39.39762981 67.13505872 -39.40151732 68.71870901 -39.40698242 70.30235291 C-39.41657134 74.55415939 -39.40150838 78.80553772 -39.38107634 83.05729246 C-39.36334723 87.52933383 -39.36703337 92.00136509 -39.36779785 96.47343445 C-39.36593283 103.97280432 -39.34867184 111.47201098 -39.32125854 118.97132874 C-39.28974742 127.6232793 -39.27926522 136.27505191 -39.28072965 144.92705572 C-39.28208318 154.17528597 -39.26819515 163.42344834 -39.24983644 172.67165804 C-39.24558821 175.32291583 -39.24415611 177.97416256 -39.24335861 180.62542343 C-39.24134088 184.79689855 -39.22905963 188.96822599 -39.20902634 193.13965225 C-39.20321625 194.66457972 -39.20071745 196.18952419 -39.20188141 197.71446228 C-39.20971541 214.23411068 -36.59764162 227.7935616 -24.90963745 240.12025452 C-16.9930413 247.28288913 -8.85008719 250.22034559 1.80381775 250.2784729 C2.4655418 250.28341088 3.12726586 250.28834885 3.80904216 250.29343647 C6.01845447 250.30875096 8.22783785 250.31715559 10.43728638 250.32557678 C12.02421318 250.33516007 13.61113745 250.34517042 15.19805908 250.35557556 C19.50132857 250.38258187 23.80460897 250.40361455 28.10791612 250.42357755 C32.60694249 250.44546349 37.10593536 250.47283941 41.60493469 250.49963379 C50.12228998 250.54952541 58.63966389 250.59447734 67.15705556 250.63765615 C76.85471164 250.6870587 86.55233412 250.74196564 96.24995768 250.79733574 C116.19672798 250.9111016 136.14353038 251.01795238 156.09036255 251.12025452 C155.34848227 254.48020841 154.40544689 257.24717904 152.07030296 259.8764019 C147.26781574 262.89345547 140.85130018 261.9160983 135.3611145 261.84901428 C133.83966844 261.85223452 132.31822598 261.85805322 130.79679871 261.86627197 C126.66809194 261.88080563 122.54035914 261.85786231 118.41177011 261.82741284 C114.08428355 261.80102354 109.75682613 261.80634477 105.42927551 261.80749512 C98.15671551 261.80468557 90.884531 261.77864898 83.61209106 261.73768616 C75.22161131 261.6905983 66.83154354 261.67468888 58.44094115 261.67689282 C49.49167163 261.67892557 40.54255958 261.65805638 31.59333777 261.63055301 C29.02401927 261.6241803 26.45472645 261.62203231 23.88540077 261.62083626 C19.83298188 261.61780398 15.78090374 261.59933713 11.72859764 261.56933784 C10.24764979 261.56063533 8.7666627 261.55687191 7.28569031 261.55862045 C-8.24441695 261.57000946 -20.04142572 258.42270884 -31.45651245 247.65541077 C-42.13685666 236.61792129 -49.00279763 222.67964216 -49.05680847 207.18383789 C-49.06048516 206.49791221 -49.06416185 205.81198652 -49.06794995 205.10527521 C-49.07893798 202.81330424 -49.08282233 200.52137868 -49.0866394 198.22938538 C-49.09290786 196.58311318 -49.099555 194.93684238 -49.10655212 193.29057312 C-49.12755351 187.88875811 -49.13795242 182.48694296 -49.1479187 177.08509827 C-49.15196804 175.2215225 -49.15608502 173.35794688 -49.16026878 171.49437141 C-49.17931364 162.7356808 -49.19354487 153.97699856 -49.20188075 145.21829122 C-49.21164395 135.1279618 -49.23794246 125.03785229 -49.27838165 114.94760031 C-49.30860787 107.13590978 -49.32335588 99.32428204 -49.32666177 91.5125342 C-49.32900525 86.85302337 -49.33787367 82.19374764 -49.36312294 77.53429985 C-49.38652219 73.14539396 -49.39058964 68.756876 -49.38036156 64.36792374 C-49.37986892 62.76522717 -49.38610831 61.16251073 -49.3999176 59.55987358 C-49.47698581 50.07814147 -48.59806172 41.99778539 -44.90963745 33.12025452 C-44.58854161 32.2833908 -44.26744577 31.44652708 -43.93661976 30.58430386 C-38.81039185 17.44604927 -27.73253685 8.07610346 -15.2963562 1.99525452 C-10.2884788 0.15930601 -5.28946181 -0.00407509 0 0 Z " fill="#04E9F4" transform="translate(73.90963745117188,22.879745483398438)"/>
<path d="M0 0 C20.16714302 -0.07017149 40.33426117 -0.12302802 60.50150108 -0.15543652 C69.86611393 -0.17088626 79.23065078 -0.1919395 88.59521484 -0.22631836 C96.76013511 -0.25627877 104.92500033 -0.27558876 113.08997405 -0.28226548 C117.41076387 -0.28616651 121.73139625 -0.2952948 126.05213547 -0.31719017 C130.12491454 -0.3376604 134.19747237 -0.34381266 138.270298 -0.33932304 C139.75933792 -0.34014356 141.24838579 -0.34604622 142.73738098 -0.35761642 C158.09580489 -0.47103324 170.82420877 2.92834076 182.3125 13.75 C191.67823434 23.79865247 198.23055409 36.49359311 198.26742554 50.366745 C198.27195665 51.07479729 198.27648776 51.78284958 198.28115618 52.51235801 C198.29374082 54.86727454 198.29218368 57.22195802 198.29052734 59.5769043 C198.29651642 61.27273351 198.30332283 62.96856 198.31088257 64.66438293 C198.32851379 69.25968357 198.33323681 73.85490966 198.33451414 78.45024085 C198.33593823 81.32568427 198.34021276 84.20110889 198.34550858 87.07654762 C198.36400117 97.12094953 198.37218038 107.16529843 198.37060547 117.2097168 C198.36940512 126.55109302 198.39048845 135.8922378 198.4220928 145.2335555 C198.44830797 153.27034671 198.45897053 161.3070626 198.45769465 169.34389621 C198.45718644 174.13638217 198.46279074 178.92866246 198.48405075 183.72110558 C198.503521 188.2331689 198.503498 192.74483227 198.48901749 197.25691032 C198.48693896 198.904753 198.49157272 200.5526213 198.5037384 202.20042038 C198.63296995 220.93072665 192.97747981 235.3204598 180 249 C171.41878325 256.25280775 160.64360407 261.12900592 149.40679932 261.12025452 C148.41549487 261.12153615 148.41549487 261.12153615 147.40416408 261.12284368 C145.19161559 261.12448967 142.97914306 261.11899154 140.76660156 261.11352539 C139.17982485 261.1132433 137.593048 261.11340168 136.00627136 261.1139679 C131.69878294 261.11425503 127.39132232 261.10837185 123.08384037 261.10139394 C118.58216047 261.09514643 114.08047995 261.09455549 109.57879639 261.09336853 C101.05430012 261.09025934 92.52981666 261.0820515 84.00532603 261.07201904 C74.30046199 261.06084512 64.59559734 261.05534422 54.89072847 261.05032361 C34.92714516 261.03986856 14.96357339 261.02227707 -5 261 C-3.62847406 256.99971601 -2.03272769 253.98223799 1 251 C3.85650921 250.37473011 3.85650921 250.37473011 7.22892761 250.3742218 C8.5087854 250.36182465 9.78864319 250.34942749 11.10728455 250.33665466 C12.52359375 250.34809661 13.9398993 250.35999868 15.35620117 250.37231445 C16.84956759 250.36713562 18.34292772 250.3597356 19.83627319 250.35028076 C23.05195461 250.33470894 26.26711481 250.33489508 29.48280907 250.34728432 C34.57271119 250.36682418 39.66215014 250.35162749 44.75202942 250.33183289 C52.80898232 250.30466757 60.86574682 250.30119368 68.92273647 250.30760592 C83.3331439 250.3185301 97.74349323 250.29385837 112.15384275 250.25385827 C117.20760018 250.24082188 122.26118467 250.2395083 127.31495035 250.2479912 C130.46857776 250.25163169 133.62216156 250.24729765 136.77578354 250.2411499 C138.23137258 250.2400699 139.68696904 250.24239448 141.1425457 250.2484951 C155.76349666 250.30679855 164.56507713 248.28470611 175.75 238.625 C186.2871197 226.33169368 188.60498347 214.01408204 188.53344727 198.25439453 C188.5405198 196.60047644 188.54927038 194.94656481 188.55955505 193.29266357 C188.58191077 188.83379109 188.5791417 184.37527589 188.57023358 179.91636896 C188.56509495 176.1791287 188.57243955 172.44195389 188.57970566 168.70472038 C188.59666124 159.88039901 188.59318326 151.05625075 188.57641602 142.23193359 C188.55950251 133.16136521 188.57532849 124.09127837 188.6076389 115.02076256 C188.63442378 107.20207152 188.64158677 99.38352956 188.63312382 91.56479728 C188.62822004 86.90867093 188.63027075 82.25283398 188.65091133 77.59674454 C188.66940878 73.21499965 188.66314024 68.83394145 188.63871193 64.45223236 C188.63374808 62.85522419 188.63707697 61.25816239 188.64986038 59.66119766 C188.74658759 46.52645725 186.83637012 34.27659354 177.93359375 23.95703125 C168.78098106 14.6934778 158.61759653 9.5565233 145.45105886 9.32504523 C143.28380424 9.31408725 141.11742461 9.32704696 138.95019531 9.34057617 C137.37207786 9.33210527 135.79397087 9.32145312 134.21588135 9.30880737 C129.96864537 9.28085985 125.72191785 9.28309703 121.47461796 9.29110122 C117.02229051 9.29424306 112.57012031 9.26914308 108.11785889 9.24714661 C99.70339573 9.2098107 91.28909414 9.19756483 82.8745563 9.1945222 C73.28792599 9.18981999 63.70145638 9.15685947 54.11489725 9.12162435 C34.40994974 9.04982731 14.70506824 9.01319509 -5 9 C-3.35 6.03 -1.7 3.06 0 0 Z " fill="#04ECF8" transform="translate(287,23)"/>
<path d="M0 0 C1.1858519 0.00212242 1.1858519 0.00212242 2.3956604 0.00428772 C4.90183416 0.00985121 7.40791608 0.02239681 9.9140625 0.03515625 C11.62109245 0.04017597 13.32812382 0.04473805 15.03515625 0.04882812 C19.20315998 0.05980866 23.37109571 0.07704786 27.5390625 0.09765625 C27.5390625 4.05765625 27.5390625 8.01765625 27.5390625 12.09765625 C25.91278931 12.11953003 25.91278931 12.11953003 24.25366211 12.1418457 C20.20727586 12.20009097 16.16143091 12.27732095 12.11547852 12.36010742 C10.36882351 12.39323392 8.62206462 12.42130362 6.87524414 12.4440918 C4.3551838 12.47786506 1.83606498 12.53018972 -0.68359375 12.5859375 C-1.45679459 12.59232742 -2.22999542 12.59871735 -3.02662659 12.6053009 C-8.73344286 12.75790244 -13.89226591 13.66720914 -18.203125 17.74609375 C-20.45885334 21.18413487 -22.16144351 23.90474046 -22.4609375 28.09765625 C-22.5228125 28.76667969 -22.5846875 29.43570313 -22.6484375 30.125 C-22.96938413 35.99230563 -21.82322311 40.25684113 -18.4609375 45.09765625 C-12.34241412 51.37719341 -3.81443778 50.35108081 4.4140625 50.66015625 C5.48398438 50.70333984 6.55390625 50.74652344 7.65625 50.79101562 C10.28372153 50.89658368 12.91137628 50.9975742 15.5390625 51.09765625 C15.5390625 47.46765625 15.5390625 43.83765625 15.5390625 40.09765625 C8.9390625 40.09765625 2.3390625 40.09765625 -4.4609375 40.09765625 C-4.4609375 36.13765625 -4.4609375 32.17765625 -4.4609375 28.09765625 C5.7690625 28.09765625 15.9990625 28.09765625 26.5390625 28.09765625 C26.5390625 39.64765625 26.5390625 51.19765625 26.5390625 63.09765625 C21.4156626 63.16682215 16.29390628 63.22646483 11.17041016 63.26245117 C9.43044522 63.27746479 7.69051766 63.29788202 5.95068359 63.32397461 C3.4383823 63.36068732 0.9265847 63.37745694 -1.5859375 63.390625 C-2.73799683 63.41385078 -2.73799683 63.41385078 -3.91333008 63.43754578 C-13.0891651 63.44035486 -19.5182822 60.05832591 -26.1171875 53.734375 C-33.02043949 45.96821651 -35.51196548 38.13330817 -35.03515625 27.78125 C-33.56175188 18.32941109 -28.96834121 11.73748286 -21.70703125 5.71875 C-14.55302118 0.555421 -8.73129432 -0.05957091 0 0 Z " fill="#03E2ED" transform="translate(104.4609375,165.90234375)"/>
<path d="M0 0 C7.095 -0.144375 14.19 -0.28875 21.5 -0.4375 C23.72427734 -0.50122803 25.94855469 -0.56495605 28.24023438 -0.63061523 C30.02470962 -0.65108012 31.8092178 -0.6689128 33.59375 -0.68359375 C34.50286133 -0.71940552 35.41197266 -0.75521729 36.34863281 -0.79211426 C42.67154522 -0.79810835 45.85260739 0.74081918 50.42053223 5.10215759 C54.3320185 9.80208541 54.49162548 13.97945185 54.375 19.94921875 C53.82240329 24.44482327 52.37172991 27.92468591 49 31 C43.86334982 33.59716467 40.16641276 34.36345076 34.31640625 34.29296875 C33.61603745 34.28872391 32.91566864 34.28447906 32.19407654 34.28010559 C29.98314 34.26347156 27.77315543 34.2258518 25.5625 34.1875 C24.05274765 34.17243326 22.54298084 34.15874836 21.03320312 34.14648438 C17.35481757 34.11618466 13.6784592 34.05744268 10 34 C10 43.57 10 53.14 10 63 C6.7 63 3.4 63 0 63 C0 42.21 0 21.42 0 0 Z " fill="#04E9F4" transform="translate(240,166)"/>
<path d="M0 0 C3.91927481 1.95963741 6.85992067 4.2828783 10.125 7.125 C11.29472094 8.12859802 12.46530078 9.1311958 13.63671875 10.1328125 C14.21083496 10.62426758 14.78495117 11.11572266 15.37646484 11.62207031 C19.17336317 14.84458071 23.0883889 17.91881878 27 21 C28.14974405 21.90884852 29.29948332 22.81770308 30.44921875 23.7265625 C31.67427427 24.69296813 32.89953374 25.65911527 34.125 26.625 C34.68695068 27.0684375 35.24890137 27.511875 35.82788086 27.96875 C40.17158525 31.38260749 44.57698921 34.68274191 49 38 C49.33 25.46 49.66 12.92 50 0 C53.96 0 57.92 0 62 0 C62 20.79 62 41.58 62 63 C58.98292435 61.49146217 57.0335424 60.35988997 54.53125 58.27734375 C53.88397949 57.74359131 53.23670898 57.20983887 52.56982422 56.65991211 C51.54526123 55.80731812 51.54526123 55.80731812 50.5 54.9375 C45.70250386 50.98550425 40.88798103 47.11278528 35.875 43.4375 C30.62265534 39.56470415 25.69186216 35.39201038 20.80615234 31.07202148 C20.25266113 30.58677002 19.69916992 30.10151855 19.12890625 29.6015625 C18.40296265 28.95695068 18.40296265 28.95695068 17.66235352 28.29931641 C15.57993774 26.67167405 13.26639048 25.35983429 11 24 C11 36.87 11 49.74 11 63 C7.37 63 3.74 63 0 63 C0 42.21 0 21.42 0 0 Z " fill="#03E4F0" transform="translate(386,76)"/>
<path d="M0 0 C3.04185689 1.52092845 5.03690548 2.69482577 7.57421875 4.79296875 C8.23768311 5.33808105 8.90114746 5.88319336 9.5847168 6.44482422 C10.27863525 7.01990723 10.97255371 7.59499023 11.6875 8.1875 C13.12481465 9.36090415 14.56231342 10.53408282 16 11.70703125 C18.31059067 13.60139168 20.60031856 15.51141269 22.875 17.44921875 C23.638125 18.08472656 24.40125 18.72023438 25.1875 19.375 C25.82042969 19.91898438 26.45335937 20.46296875 27.10546875 21.0234375 C28.99028806 22.18225733 28.99028806 22.18225733 31.33203125 21.97265625 C34.93133085 20.6604665 37.58864631 18.47821726 40.5 16.0625 C41.73255038 15.06706098 42.96563695 14.07228556 44.19921875 13.078125 C44.82489746 12.56958984 45.45057617 12.06105469 46.09521484 11.53710938 C49.13385502 9.0850101 52.21983226 6.69585223 55.3125 4.3125 C55.869375 3.87881104 56.42625 3.44512207 57 2.99829102 C60.88280215 0 60.88280215 0 62 0 C62 20.79 62 41.58 62 63 C58.37 63 54.74 63 51 63 C51 50.13 51 37.26 51 24 C47.88411149 25.8695331 45.23112791 27.48929091 42.44921875 29.69921875 C41.83369141 30.18583984 41.21816406 30.67246094 40.58398438 31.17382812 C39.64522461 31.9230957 39.64522461 31.9230957 38.6875 32.6875 C38.04232422 33.19861328 37.39714844 33.70972656 36.73242188 34.23632812 C35.1528705 35.48826884 33.57614631 36.74377514 32 38 C28.0342512 36.2850816 24.80587759 33.65226582 21.4375 31 C18.34192668 28.57888121 15.27273406 26.1818227 12 24 C11.67 36.87 11.34 49.74 11 63 C7.37 63 3.74 63 0 63 C0 42.21 0 21.42 0 0 Z " fill="#03E7F3" transform="translate(148,76)"/>
<path d="M0 0 C3.63 0 7.26 0 11 0 C11.01458252 1.04341553 11.02916504 2.08683105 11.04418945 3.16186523 C11.10260393 7.07039949 11.17983007 10.97838335 11.26245117 14.88647461 C11.29549913 16.57095337 11.3235923 18.2555375 11.34643555 19.94018555 C11.28371977 32.83492639 11.28371977 32.83492639 15 45 C16.931753 46.11578171 16.931753 46.11578171 19 47 C20.299375 48.051875 20.299375 48.051875 21.625 49.125 C26.21873367 51.67707426 29.85388738 51.77947301 35 51 C40.93093717 49.16398815 44.4759281 46.0191327 48 41 C49.28774446 37.13676662 49.23382793 33.42509463 49.31640625 29.39453125 C49.33718735 28.55532639 49.35796844 27.71612152 49.37937927 26.85148621 C49.44474018 24.17190706 49.50369714 21.49223031 49.5625 18.8125 C49.60569802 16.99543263 49.64931273 15.17837512 49.69335938 13.36132812 C49.8004078 8.90765201 49.90171319 4.45387774 50 0 C53.96 0 57.92 0 62 0 C62.07484195 4.80139866 62.12892454 9.60244862 62.16479492 14.40429688 C62.17976766 16.03358891 62.20015321 17.66284145 62.22631836 19.29199219 C62.45579374 33.96041845 61.26312428 44.61692835 51 56 C43.75123091 62.01580089 35.88465393 63.59404479 26.609375 63.4375 C19.05412367 62.52171196 13.2868263 58.71154525 8.125 53.25 C7.06419399 51.84760758 6.02425056 50.42930916 5 49 C4.54197998 48.37464355 4.08395996 47.74928711 3.61206055 47.10498047 C-1.69473088 38.39882444 -0.54705371 28.69262163 -0.3125 18.875 C-0.2873796 17.04169716 -0.26457306 15.20836108 -0.24414062 13.375 C-0.18945553 8.91583573 -0.10339262 4.45828997 0 0 Z " fill="#03E2EE" transform="translate(155,166)"/>
<path d="M0 0 C20.13 0 40.26 0 61 0 C61 3.96 61 7.92 61 12 C52.75 12 44.5 12 36 12 C36 28.83 36 45.66 36 63 C32.37 63 28.74 63 25 63 C25 46.17 25 29.34 25 12 C16.75 12 8.5 12 0 12 C0 8.04 0 4.08 0 0 Z " fill="#04E4EF" transform="translate(316,166)"/>
<path d="M0 0 C0.66 0 1.32 0 2 0 C2.72703125 1.4540625 2.72703125 1.4540625 3.46875 2.9375 C3.78827637 3.57647217 4.10780273 4.21544434 4.43701172 4.8737793 C5.15764866 6.31521868 5.8780178 7.75679198 6.59814453 9.19848633 C8.37970579 12.76430701 10.16402256 16.32860735 11.9609375 19.88671875 C16.30205117 28.49912476 20.49338483 37.17407145 24.58740234 45.90698242 C26.18966388 49.30525985 27.75397168 52.60180067 29.73046875 55.80078125 C31 58 31 58 32 63 C28.04 63 24.08 63 20 63 C17.9627414 59.28357576 15.93952636 55.56029609 13.953125 51.81640625 C13.61700195 51.18420166 13.28087891 50.55199707 12.93457031 49.90063477 C11.70103415 47.39199343 10.73758463 44.82590843 9.84375 42.1796875 C8.56737881 38.88239525 7.00227142 35.72972428 5.4375 32.5625 C5.13191162 31.93400146 4.82632324 31.30550293 4.51147461 30.65795898 C2.9289378 27.21020056 2.9289378 27.21020056 0 25 C-0.33 26.155 -0.66 27.31 -1 28.5 C-2.78226376 33.87213152 -5.30108355 38.78874333 -7.8671875 43.81640625 C-11.09217251 50.13547282 -14.06364456 56.54001804 -17 63 C-21.29 63 -25.58 63 -30 63 C-28.80069054 60.00172635 -27.67983201 57.2397477 -26.23046875 54.3984375 C-25.90159668 53.74907227 -25.57272461 53.09970703 -25.23388672 52.43066406 C-24.8885791 51.75229492 -24.54327148 51.07392578 -24.1875 50.375 C-21.39510449 44.84547906 -18.73185718 39.28483723 -16.203125 33.62890625 C-13.94043619 28.68478427 -11.45498695 23.8506747 -9 19 C-7.74712604 16.52227163 -6.49781256 14.04278049 -5.25 11.5625 C-4.67765625 10.42941406 -4.1053125 9.29632813 -3.515625 8.12890625 C-2.21818509 5.4504285 -1.05975765 2.77926639 0 0 Z " fill="#03E6F3" transform="translate(336,76)"/>
<path d="M0 0 C2.44984756 2.2123981 3.78744255 4.27997676 5.15625 7.2734375 C5.53910156 8.0984375 5.92195313 8.9234375 6.31640625 9.7734375 C6.70699219 10.63195312 7.09757812 11.49046875 7.5 12.375 C9.8068951 17.39992003 12.08230091 22.29347349 15 27 C16 29.33333333 17 31.66666667 18 34 C18.495 34.825 18.99 35.65 19.5 36.5 C21 39 21 39 22.4375 42.375 C23.53768766 44.92743537 24.60479701 47.13399036 26 49.5 C28.53113778 53.80584359 30.41883401 58.25650202 32 63 C27.71 63 23.42 63 19 63 C18.41992188 61.76765625 17.83984375 60.5353125 17.2421875 59.265625 C12.93017508 50.12271578 8.57073651 41.01681657 4 32 C2.99906026 30.00047015 1.99883161 28.00058377 1 26 C-1.42765012 29.02238642 -3.12108307 32.07768787 -4.77734375 35.578125 C-5.29103516 36.65707031 -5.80472656 37.73601562 -6.33398438 38.84765625 C-6.86314453 39.97042969 -7.39230469 41.09320313 -7.9375 42.25 C-8.98770839 44.46381352 -10.0384776 46.67736108 -11.08984375 48.890625 C-11.58597168 49.93669922 -12.08209961 50.98277344 -12.59326172 52.06054688 C-14.34988361 55.73110007 -16.16253148 59.36933931 -18 63 C-21.96 63 -25.92 63 -30 63 C-29.06783103 58.33915516 -27.58954921 54.83284485 -25.4375 50.6875 C-24.71329197 49.26835656 -23.98934141 47.84908171 -23.265625 46.4296875 C-22.89244141 45.70233398 -22.51925781 44.97498047 -22.13476562 44.22558594 C-21.00727168 42.01426175 -19.89864721 39.7945521 -18.796875 37.5703125 C-18.44310791 36.85657471 -18.08934082 36.14283691 -17.72485352 35.4074707 C-17.04994925 34.04447858 -16.37591179 32.6810568 -15.70288086 31.31713867 C-14.37216054 28.64292587 -13.01757284 26.02869489 -11.45703125 23.48046875 C-9.66498786 20.42967103 -8.37658282 17.2584935 -7 14 C-5.80850311 11.50157385 -4.56391264 9.03136209 -3.3125 6.5625 C-2.99216797 5.92634766 -2.67183594 5.29019531 -2.34179688 4.63476562 C-1.56305578 3.08890643 -0.78179666 1.54431613 0 0 Z " fill="#03E7F4" transform="translate(258,76)"/>
<path d="M0 0 C3.23184417 2.15456278 3.80164967 3.52456739 5.19165039 7.02319336 C5.99649853 8.9914372 6.90373662 10.86078567 7.87109375 12.75390625 C9.54478897 16.06844169 11.13409552 19.41154383 12.6887207 22.78320312 C16.37962866 30.78289725 20.33943414 38.59572065 24.58642578 46.31567383 C27.34803607 51.42526359 29.29672221 56.44367632 31 62 C27.04 62 23.08 62 19 62 C10.985776 46.14662 10.985776 46.14662 8.0078125 39.23828125 C5.83589205 34.41459746 3.39407058 29.71631905 1 25 C-1.47694761 28.08881265 -3.25114391 31.26469038 -5 34.8125 C-5.495 35.80894531 -5.99 36.80539063 -6.5 37.83203125 C-7.53032685 40.00806009 -8.51381081 42.20669777 -9.45703125 44.421875 C-11.07282293 48.16887546 -12.84352023 51.79958585 -14.6875 55.4375 C-15.16799805 56.39172852 -15.16799805 56.39172852 -15.65820312 57.36523438 C-16.43694422 58.91109357 -17.21820334 60.45568387 -18 62 C-21.96 62 -25.92 62 -30 62 C-29.11577039 57.57885195 -28.51850331 55.88277089 -26.1875 52.3125 C-23.64772074 48.22598313 -21.81621708 44.24018682 -20.1171875 39.75390625 C-16.34797692 30.46267038 -11.29240305 21.65044832 -6.50390625 12.85546875 C-4.80422754 9.62828657 -3.39120754 6.36818668 -2 3 C-1.34 2.01 -0.68 1.02 0 0 Z " fill="#03E6F2" transform="translate(414,167)"/>
<path d="M0 0 C2.83351143 3.4525247 4.74224057 7.25874793 6.6875 11.25 C7.39434249 12.68368683 8.10137947 14.11727778 8.80859375 15.55078125 C9.16937012 16.28506348 9.53014648 17.0193457 9.90185547 17.77587891 C10.97720108 19.95382433 12.06574406 22.12454951 13.16015625 24.29296875 C18.97278624 35.81455199 18.97278624 35.81455199 21 40.5625 C23.11051264 45.50301822 25.74223108 50.17501855 28.359375 54.86157227 C31 59.67708703 31 59.67708703 31 63 C27.04 63 23.08 63 19 63 C12.97321429 52.15178571 12.97321429 52.15178571 11.3125 48.125 C10.11135186 45.04131181 10.11135186 45.04131181 8.5 42.5625 C6.86051028 39.76170506 5.8480827 36.97610494 4.76171875 33.9296875 C3.78071763 31.44448465 2.40095741 29.26821676 1 27 C1 26.34 1 25.68 1 25 C0.34 25 -0.32 25 -1 25 C-1.25910156 25.84691406 -1.51820312 26.69382812 -1.78515625 27.56640625 C-3.07319002 31.20686182 -4.67323847 34.5038297 -6.4375 37.9375 C-8.8100342 42.56471034 -10.98072517 47.2083154 -13 52 C-14.64924293 55.674792 -16.32640385 59.3361814 -18 63 C-21.96 63 -25.92 63 -30 63 C-29.17530139 58.87650694 -28.652083 57.02804237 -26.625 53.625 C-25.03633983 50.8768005 -23.58054915 48.18692292 -22.375 45.25 C-21 42 -21 42 -19.5 39.5625 C-17.84798313 36.91900947 -17.84798313 36.91900947 -16.7109375 33.42578125 C-14.93074752 28.5939154 -12.56909432 24.14871843 -10.125 19.625 C-9.23361698 17.95483142 -8.34298475 16.28426192 -7.453125 14.61328125 C-7.02966797 13.82002441 -6.60621094 13.02676758 -6.16992188 12.20947266 C-4.03551168 8.17850182 -2.00168839 4.09819359 0 0 Z " fill="#03E7F4" transform="translate(99,76)"/>
<path d="M0 0 C4.37823917 -0.04938149 8.75633146 -0.0857104 13.13476562 -0.10986328 C14.6247032 -0.11993043 16.11462097 -0.13358518 17.60449219 -0.15087891 C19.74419028 -0.17509653 21.88362753 -0.18647564 24.0234375 -0.1953125 C25.31169434 -0.20578613 26.59995117 -0.21625977 27.92724609 -0.22705078 C31 0 31 0 33 2 C33.5487745 7.15848028 33.5487745 7.15848028 31.90893555 9.6730957 C29.02404797 11.67838589 26.6220063 11.33698742 23.14453125 11.29296875 C22.48289474 11.28872391 21.82125824 11.28447906 21.13957214 11.28010559 C19.0301309 11.26333693 16.92165154 11.22569099 14.8125 11.1875 C13.38087319 11.17245068 11.94923138 11.1587627 10.51757812 11.14648438 C7.01140712 11.1134403 3.50579746 11.06167167 0 11 C0 7.37 0 3.74 0 0 Z " fill="#002833" transform="translate(251,178)"/>
<path d="M0 0 C1.29286423 -0.00687332 2.58572845 -0.01374664 3.91777039 -0.02082825 C5.34836396 -0.0031335 6.77895167 0.01504053 8.20953369 0.03364563 C9.71749321 0.03505615 11.22545617 0.03426405 12.7334137 0.03143311 C16.82632211 0.02999766 20.91849887 0.05940753 25.01123714 0.09430289 C29.28866307 0.12554534 33.56610551 0.12849545 37.84362793 0.13442993 C45.94328833 0.14997463 54.04261157 0.19101144 62.14212346 0.24117738 C71.36327485 0.29705146 80.58444229 0.32455245 89.80572081 0.34965456 C108.77417516 0.40192685 127.74231561 0.48988118 146.71051025 0.60127258 C146.71051025 0.93127258 146.71051025 1.26127258 146.71051025 1.60127258 C145.93690564 1.60089556 145.16330103 1.60051853 144.36625385 1.60013008 C125.54593443 1.59301414 106.72592555 1.61889899 87.90570545 1.68155098 C78.80436519 1.71105261 69.70325862 1.72936905 60.60186768 1.72138977 C52.66940458 1.71446364 44.7373031 1.72848749 36.80492896 1.76770866 C32.60435544 1.78774546 28.40434989 1.79726361 24.20374489 1.78169632 C20.24964364 1.76737351 16.29662799 1.78106781 12.34266663 1.81622505 C10.89187238 1.82419171 9.44098027 1.82193434 7.99022484 1.80866432 C6.00829755 1.79206924 4.02615496 1.81593128 2.04432678 1.84178162 C0.38095134 1.844547 0.38095134 1.844547 -1.31602764 1.84736824 C-5.22397363 2.52843129 -5.22397363 2.52843129 -9.28948975 8.60127258 C68.92051025 9.09627258 68.92051025 9.09627258 148.71051025 9.60127258 C148.71051025 9.93127258 148.71051025 10.26127258 148.71051025 10.60127258 C95.58051025 10.60127258 42.45051025 10.60127258 -12.28948975 10.60127258 C-9.48394689 3.58741545 -7.91265034 -0.03242889 0 0 Z " fill="#01C0C6" transform="translate(294.28948974609375,273.3987274169922)"/>
<path d="M0 0 C0.64216072 -0.00170885 1.28432143 -0.0034177 1.94594157 -0.00517833 C4.0832685 -0.00845498 6.22027678 0.0024999 8.35757446 0.01345825 C9.89538567 0.01402276 11.43319741 0.01370503 12.9710083 0.01257324 C17.1358569 0.01200028 21.30058989 0.02374541 25.46541166 0.03772116 C29.82160065 0.05023796 34.17779239 0.05139977 38.53399658 0.05377197 C46.77865946 0.05998395 55.0232692 0.07639095 63.26790869 0.09647095 C72.65601168 0.11883874 82.04411724 0.1298256 91.43224025 0.13986182 C110.74022682 0.16075742 130.04816394 0.19592792 149.35610962 0.24050903 C149.02610962 0.90050903 148.69610962 1.56050903 148.35610962 2.24050903 C147.55673635 2.24474097 146.75736307 2.24897291 145.93376637 2.25333309 C126.48766015 2.35661567 107.04159059 2.46524989 87.59554768 2.57984829 C78.1916102 2.63513788 68.78766893 2.68861288 59.38369751 2.73782349 C51.18767273 2.78071755 42.99167541 2.82700872 34.7956931 2.87738758 C30.45557886 2.90394643 26.11546992 2.92879844 21.77532387 2.94958305 C17.69027408 2.96919969 13.60527634 2.99335841 9.52027321 3.02099991 C8.0210922 3.03034375 6.52189978 3.03802855 5.02270126 3.04392815 C2.97502626 3.05223468 0.92738099 3.06709988 -1.12025452 3.08229065 C-2.2660432 3.0887432 -3.41183187 3.09519575 -4.59234142 3.10184383 C-7.38924727 3.22893782 -9.92299027 3.60314279 -12.64389038 4.24050903 C-12.64389038 3.58050903 -12.64389038 2.92050903 -12.64389038 2.24050903 C-8.27121801 0.57422342 -4.66990184 -0.00751997 0 0 Z " fill="#01404C" transform="translate(75.64389038085938,31.759490966796875)"/>
<path d="M0 0 C-1.07401108 2.91517292 -1.77810176 4.77810176 -4 7 C-4.66 8.65 -5.32 10.3 -6 12 C-11.61 12 -17.22 12 -23 12 C-22.34 10.35 -21.68 8.7 -21 7 C-20.76023437 6.33355469 -20.52046875 5.66710937 -20.2734375 4.98046875 C-16.43748582 -2.67475656 -7.31026301 -0.54118281 0 0 Z " fill="#04DDE9" transform="translate(279,274)"/>
<path d="M0 0 C-0.66269061 1.66825159 -1.33005782 3.33464728 -2 5 C-2.35964844 5.99966797 -2.35964844 5.99966797 -2.7265625 7.01953125 C-3.92438178 9.4099619 -4.73537308 10.51265691 -7 12 C-12.39543025 12.6181699 -17.59432927 12.40018479 -23 12 C-22.33730939 10.33174841 -21.66994218 8.66535272 -21 7 C-20.76023438 6.33355469 -20.52046875 5.66710937 -20.2734375 4.98046875 C-16.43748582 -2.67475656 -7.31026301 -0.54118281 0 0 Z " fill="#04E0EB" transform="translate(255,274)"/>
<path d="M0 0 C2.7885289 -0.22107787 5.34653181 -0.28107535 8.125 -0.1875 C8.87910156 -0.17396484 9.63320312 -0.16042969 10.41015625 -0.14648438 C12.27374127 -0.11109985 14.13695978 -0.05729167 16 0 C15.33730939 1.66825159 14.66994218 3.33464728 14 5 C13.64035156 5.99966797 13.64035156 5.99966797 13.2734375 7.01953125 C12.07561822 9.4099619 11.26462692 10.51265691 9 12 C3.60456975 12.6181699 -1.59432927 12.40018479 -7 12 C-6.20994338 10.56161448 -5.41788955 9.12432585 -4.625 7.6875 C-4.18414062 6.88699219 -3.74328125 6.08648437 -3.2890625 5.26171875 C-2.26486665 3.46472057 -1.14732862 1.72099292 0 0 Z " fill="#03E2ED" transform="translate(239,21)"/>
<path d="M0 0 C-0.66269061 1.66825159 -1.33005782 3.33464728 -2 5 C-2.35964844 5.99966797 -2.35964844 5.99966797 -2.7265625 7.01953125 C-3.92438178 9.4099619 -4.73537308 10.51265691 -7 12 C-12.39543025 12.6181699 -17.59432927 12.40018479 -23 12 C-22.70351563 11.42765625 -22.40703125 10.8553125 -22.1015625 10.265625 C-20.97020589 8.05875873 -20.97020589 8.05875873 -20.2734375 5.859375 C-16.61844003 -2.72192341 -7.89240515 -0.66774756 0 0 Z " fill="#03E3EE" transform="translate(279,21)"/>
<path d="M0 0 C2.68240547 -0.36914349 2.68240547 -0.36914349 6.16287231 -0.36076355 C7.47822968 -0.36488754 8.79358704 -0.36901154 10.14880371 -0.3732605 C11.61499226 -0.36264228 13.08117877 -0.35173784 14.54736328 -0.34057617 C16.08458439 -0.33973035 17.6218067 -0.34020416 19.1590271 -0.34190369 C23.34069892 -0.34276683 27.52211425 -0.32508963 31.70372629 -0.30418181 C36.07060869 -0.28546807 40.43749653 -0.28366877 44.80441284 -0.28010559 C53.07757311 -0.27076949 61.35061489 -0.24613462 69.62372291 -0.21605712 C79.04074392 -0.18256171 88.45777049 -0.16603935 97.87483621 -0.15097082 C117.24995806 -0.11958637 136.62496951 -0.06679556 156 0 C156 0.33 156 0.66 156 1 C155.21793151 0.99962297 154.43586302 0.99924595 153.63009548 0.9988575 C134.59210091 0.9917374 115.55441316 1.01766426 96.51651669 1.0802784 C87.3098604 1.10976318 78.10343484 1.12810244 68.89672852 1.12011719 C60.87122457 1.1131848 52.84607776 1.12725255 44.8206616 1.16643608 C40.57196002 1.18644938 36.3238191 1.19601507 32.07508659 1.18042374 C28.07338004 1.16607094 24.07274358 1.17986249 20.07117462 1.21495247 C18.60509458 1.22290071 17.1389176 1.22069338 15.67287636 1.20739174 C6.45812471 0.93641454 6.45812471 0.93641454 -1.42747498 5.04830933 C-2.70087486 6.50939621 -2.70087486 6.50939621 -4 8 C-2.87548273 5.0280615 -1.77706209 2.66559313 0 0 Z " fill="#05E7EE" transform="translate(287,23)"/>
<path d="M0 0 C0.66 0.33 1.32 0.66 2 1 C-1.56002313 3.19801336 -4.56221659 3.29162536 -8.69921875 3.37890625 C-10.63571289 3.43014648 -10.63571289 3.43014648 -12.61132812 3.48242188 C-13.97003906 3.50976968 -15.32876348 3.53645445 -16.6875 3.5625 C-19.35829186 3.62023832 -22.0286481 3.6857044 -24.69921875 3.75390625 C-25.88346436 3.77783447 -27.06770996 3.8017627 -28.2878418 3.82641602 C-30.9149361 3.69476976 -30.9149361 3.69476976 -32 5 C-32.2285321 6.9230873 -32.39518857 8.85360228 -32.53515625 10.78515625 C-32.62216797 11.95498047 -32.70917969 13.12480469 -32.79882812 14.33007812 C-32.88583984 15.56177734 -32.97285156 16.79347656 -33.0625 18.0625 C-33.15337891 19.29806641 -33.24425781 20.53363281 -33.33789062 21.80664062 C-33.56267598 24.87081994 -33.7831856 27.93524802 -34 31 C-34.33 31 -34.66 31 -35 31 C-35 21.43 -35 11.86 -35 2 C-32.72480469 1.93941406 -30.44960937 1.87882813 -28.10546875 1.81640625 C-25.9012528 1.75459275 -23.697087 1.69121506 -21.49291992 1.62768555 C-19.96138982 1.58438167 -18.42981285 1.54270333 -16.89819336 1.50268555 C-14.69630818 1.44487268 -12.49465789 1.38121031 -10.29296875 1.31640625 C-9.60849167 1.29969376 -8.92401459 1.28298126 -8.21879578 1.26576233 C-5.22879896 1.1726445 -2.85937689 0.95312563 0 0 Z " fill="#014D59" transform="translate(285,198)"/>
<path d="M0 0 C2.475 0.99 2.475 0.99 5 2 C4.01 2.66 3.02 3.32 2 4 C1.66215904 6.68784817 1.51107756 9.1571425 1.48828125 11.8515625 C1.47033005 12.62559418 1.45237885 13.39962585 1.43388367 14.19711304 C1.37963608 16.67301967 1.34583991 19.14873203 1.3125 21.625 C1.27933954 23.30211046 1.24485107 24.97919523 1.20898438 26.65625 C1.12390183 30.77069341 1.05716047 34.88507777 1 39 C0.67 39 0.34 39 0 39 C0 26.13 0 13.26 0 0 Z " fill="#004550" transform="translate(397,100)"/>
<path d="M0 0 C0.99 0 1.98 0 3 0 C3 12.87 3 25.74 3 39 C2.67 39 2.34 39 2 39 C1.67 27.12 1.34 15.24 1 3 C0.01 2.67 -0.98 2.34 -2 2 C-1.34 1.34 -0.68 0.68 0 0 Z " fill="#01323D" transform="translate(196,100)"/>
<path d="M0 0 C1.98 0.99 1.98 0.99 4 2 C3.34 2.66 2.68 3.32 2 4 C1.75443629 6.72000357 1.62643514 9.34574257 1.5859375 12.0703125 C1.56657135 12.86654022 1.5472052 13.66276794 1.5272522 14.48312378 C1.46739526 17.03030634 1.42104721 19.57753395 1.375 22.125 C1.33682579 23.8502803 1.29777439 25.57554143 1.2578125 27.30078125 C1.16168891 31.53369876 1.07768092 35.76670549 1 40 C0.67 40 0.34 40 0 40 C0 26.8 0 13.6 0 0 Z " fill="#002D38" transform="translate(159,99)"/>
<path d="M0 0 C0.66 0.33 1.32 0.66 2 1 C-2.29 5.29 -6.58 9.58 -11 14 C-11.66 13.67 -12.32 13.34 -13 13 C-4.738041 3.40546697 -4.738041 3.40546697 0 0 Z " fill="#03C6D1" transform="translate(48,31)"/>
<path d="M0 0 C0.66 0.33 1.32 0.66 2 1 C0.625 2.5 0.625 2.5 -1 4 C-1.66 4 -2.32 4 -3 4 C-3.268125 4.598125 -3.53625 5.19625 -3.8125 5.8125 C-4.98493467 7.97224808 -6.19369282 9.35790256 -8 11 C-8.66 10.67 -9.32 10.34 -10 10 C-3.84965831 2.51708428 -3.84965831 2.51708428 0 0 Z " fill="#00424D" transform="translate(53,39)"/>
<path d="M0 0 C0.66 0.66 1.32 1.32 2 2 C0.42702086 3.86562642 -0.45510217 4.90238443 -2.90112305 5.34057617 C-3.59761963 5.32486572 -4.29411621 5.30915527 -5.01171875 5.29296875 C-5.76904297 5.28330078 -6.52636719 5.27363281 -7.30664062 5.26367188 C-8.48516602 5.2259668 -8.48516602 5.2259668 -9.6875 5.1875 C-10.88342773 5.16719727 -10.88342773 5.16719727 -12.10351562 5.14648438 C-14.06929967 5.11117089 -16.03473582 5.05736447 -18 5 C-18 4.67 -18 4.34 -18 4 C-16.86820313 3.96261719 -15.73640625 3.92523438 -14.5703125 3.88671875 C-13.08850795 3.82106918 -11.60673861 3.75462149 -10.125 3.6875 C-9.00544922 3.65366211 -9.00544922 3.65366211 -7.86328125 3.61914062 C-5.900396 3.52188055 -3.94671678 3.26957706 -2 3 C-1.34 2.01 -0.68 1.02 0 0 Z " fill="#00343F" transform="translate(250,282)"/>
<path d="M0 0 C0.99 0.99 1.98 1.98 3 3 C2 5 2 5 0 6 C-0.99 7.485 -0.99 7.485 -2 9 C-2.66 9 -3.32 9 -4 9 C-2.94124926 5.59687262 -1.99097846 2.98646769 0 0 Z " fill="#03C6D0" transform="translate(258,76)"/>
<path d="M0 0 C0.66 0.99 1.32 1.98 2 3 C1.3503125 3.5878125 1.3503125 3.5878125 0.6875 4.1875 C-1.14838491 6.01502801 -1.14838491 6.01502801 -2.5 8.6875 C-2.995 9.450625 -3.49 10.21375 -4 11 C-4.99 11 -5.98 11 -7 11 C-4.69 7.37 -2.38 3.74 0 0 Z " fill="#01404D" transform="translate(255,21)"/>
<path d="M0 0 C1.76923828 0.01353516 1.76923828 0.01353516 3.57421875 0.02734375 C4.47785156 0.03894531 5.38148437 0.05054688 6.3125 0.0625 C6.3125 0.3925 6.3125 0.7225 6.3125 1.0625 C5.57644531 1.12308594 4.84039062 1.18367188 4.08203125 1.24609375 C3.10621094 1.32988281 2.13039063 1.41367187 1.125 1.5 C0.16207031 1.58121094 -0.80085938 1.66242187 -1.79296875 1.74609375 C-4.47399602 2.03916151 -7.0537986 2.48953754 -9.6875 3.0625 C-9.6875 2.4025 -9.6875 1.7425 -9.6875 1.0625 C-6.26517028 -0.07827657 -3.60076783 -0.03565117 0 0 Z " fill="#012C39" transform="translate(72.6875,32.9375)"/>
<path d="M0 0 C0.99 0.33 1.98 0.66 3 1 C1.69791667 2.49739583 0.39583333 3.99479167 -0.90625 5.4921875 C-2.19572458 6.95936421 -2.19572458 6.95936421 -2 9 C-2.99 9 -3.98 9 -5 9 C-3.7508258 5.54074837 -2.32472205 2.85306797 0 0 Z " fill="#04CCD6" transform="translate(287,275)"/>
<path d="M0 0 C0.66 0 1.32 0 2 0 C2.33 0.99 2.66 1.98 3 3 C0.03 5.475 0.03 5.475 -3 8 C-1.125 2.25 -1.125 2.25 0 0 Z " fill="#003F4B" transform="translate(98,101)"/>
<path d="M0 0 C0.99 0 1.98 0 3 0 C1.50902342 3.7952131 -0.75700849 5.61042731 -4 8 C-2.87548273 5.0280615 -1.77706209 2.66559313 0 0 Z " fill="#02D1DB" transform="translate(287,23)"/>
</svg>
